<svg id="svg" version="1.1" xmlns="http://www.w3.org/2000/svg" xmlns:xlink="http://www.w3.org/1999/xlink" width="400" height="400" viewBox="0, 0, 400,400"><g id="svgg"><path id="path0" d="M186.778 151.663 L 185.356 152.043 185.495 155.721 C 185.572 157.745,185.820 161.290,186.046 163.600 C 187.293 176.321,187.972 194.495,188.327 224.600 C 188.477 237.360,188.746 248.025,188.924 248.300 C 189.169 248.680,191.832 248.800,199.975 248.800 C 208.079 248.800,210.799 248.678,211.097 248.300 C 211.336 247.998,211.598 240.132,211.760 228.400 C 212.211 195.782,212.941 174.311,213.985 163.000 C 214.208 160.580,214.506 157.159,214.647 155.397 L 214.903 152.194 213.046 151.697 C 210.811 151.099,188.994 151.071,186.778 151.663 M194.800 271.612 C 191.726 272.154,190.135 273.051,189.156 274.793 C 188.659 275.677,188.128 276.400,187.975 276.400 C 187.822 276.400,187.473 276.940,187.200 277.600 C 186.927 278.260,186.586 278.800,186.442 278.800 C 184.192 278.800,184.205 288.204,186.459 290.697 C 187.261 291.585,188.050 292.728,188.212 293.237 C 188.608 294.485,189.190 295.010,190.555 295.353 C 191.186 295.511,192.190 296.127,192.785 296.720 C 195.555 299.484,204.091 299.672,207.093 297.036 C 207.616 296.576,208.798 295.838,209.718 295.397 C 210.890 294.834,211.660 294.081,212.285 292.886 C 212.777 291.948,213.670 290.758,214.270 290.242 C 215.746 288.972,215.974 281.782,214.600 279.826 C 214.160 279.200,213.620 278.408,213.400 278.066 C 213.180 277.724,212.714 277.116,212.364 276.715 C 212.014 276.314,211.474 275.495,211.164 274.893 C 210.421 273.453,209.780 272.800,209.109 272.800 C 208.807 272.800,208.389 272.630,208.180 272.423 C 207.159 271.411,198.807 270.905,194.800 271.612 " stroke="none" fill="#634832" fill-rule="evenodd"></path><path id="path1" d="M187.890 65.043 C 187.771 65.163,187.357 65.306,186.970 65.363 C 186.229 65.472,185.913 66.277,185.896 68.100 C 185.887 68.986,185.702 69.200,184.943 69.200 C 184.424 69.200,184.000 69.402,184.000 69.649 C 184.000 69.959,183.815 69.944,183.400 69.600 C 182.734 69.047,181.541 69.695,181.642 70.553 C 182.065 74.142,181.550 77.479,180.600 77.298 C 179.969 77.177,179.600 77.289,179.600 77.602 C 179.600 77.995,179.476 77.995,179.000 77.600 C 178.509 77.192,178.400 77.220,178.400 77.751 C 178.400 78.108,178.108 78.400,177.751 78.400 C 177.220 78.400,177.192 78.509,177.600 79.000 C 177.976 79.454,177.981 79.600,177.620 79.600 C 177.358 79.600,177.176 80.005,177.216 80.500 C 177.344 82.080,177.217 82.400,176.462 82.400 C 175.465 82.400,174.464 83.580,174.156 85.120 C 174.017 85.817,173.778 86.310,173.625 86.215 C 173.472 86.121,173.304 86.877,173.251 87.896 C 173.130 90.234,172.980 90.460,171.751 90.152 C 170.954 89.952,170.706 90.073,170.529 90.750 C 170.407 91.218,170.089 91.600,169.823 91.600 C 169.494 91.600,169.315 92.584,169.261 94.682 C 169.178 97.863,168.819 98.574,167.500 98.164 C 167.024 98.016,166.800 98.162,166.800 98.622 C 166.800 99.160,166.684 99.202,166.234 98.828 C 165.779 98.451,165.604 98.540,165.346 99.279 C 164.999 100.275,164.971 100.564,164.868 104.245 C 164.802 106.623,164.773 106.684,163.800 106.498 C 163.129 106.370,162.798 106.487,162.794 106.853 C 162.789 107.281,162.700 107.269,162.386 106.800 C 161.722 105.808,160.800 107.451,160.800 109.626 C 160.800 111.383,160.726 111.515,159.615 111.737 C 157.817 112.097,156.534 114.642,156.450 118.014 C 156.404 119.875,156.341 119.997,155.626 119.614 C 154.545 119.035,154.000 119.098,154.000 119.800 C 154.000 120.130,153.769 120.400,153.486 120.400 C 153.203 120.400,152.938 120.715,152.898 121.100 C 152.858 121.485,152.735 122.790,152.625 124.000 C 152.299 127.587,152.105 128.084,151.216 127.609 C 150.171 127.049,150.001 127.090,149.994 127.900 C 149.989 128.494,149.931 128.510,149.611 128.003 C 149.304 127.518,149.138 127.502,148.720 127.920 C 148.302 128.338,148.318 128.504,148.803 128.811 C 149.326 129.141,149.323 129.189,148.778 129.194 C 148.278 129.199,148.137 129.807,148.057 132.287 C 148.003 133.985,147.923 135.406,147.879 135.445 C 147.836 135.484,147.113 135.607,146.274 135.718 C 144.320 135.976,144.232 136.082,144.132 138.325 C 144.086 139.356,144.038 140.335,144.024 140.500 C 144.011 140.665,143.671 140.800,143.270 140.800 C 142.182 140.800,140.801 142.488,140.794 143.826 C 140.789 144.731,140.699 144.863,140.400 144.400 C 140.118 143.963,140.009 144.289,140.001 145.600 C 139.982 148.456,139.662 149.261,138.739 148.767 C 138.119 148.435,137.811 148.536,137.182 149.277 C 136.488 150.095,136.429 150.109,136.663 149.400 C 136.808 148.960,136.795 148.719,136.632 148.865 C 136.311 149.153,136.090 150.311,135.766 153.400 C 135.379 157.082,135.294 157.278,134.309 156.751 C 133.655 156.401,133.400 156.400,133.285 156.745 C 133.201 156.998,132.967 157.103,132.766 156.979 C 132.565 156.855,132.400 156.954,132.400 157.200 C 132.400 157.446,132.208 157.529,131.973 157.383 C 131.739 157.238,131.580 157.363,131.621 157.660 C 131.661 157.957,131.673 159.730,131.647 161.600 L 131.600 165.000 130.100 164.975 C 128.095 164.941,127.343 165.191,128.066 165.650 C 128.482 165.913,128.455 165.989,127.941 165.994 C 127.427 165.999,127.295 166.362,127.341 167.642 C 127.392 169.048,127.246 169.363,126.324 169.839 C 124.968 170.541,124.000 171.903,124.000 173.113 C 124.000 173.627,123.844 173.951,123.654 173.834 C 123.464 173.716,123.319 174.110,123.332 174.710 C 123.377 176.805,122.843 178.067,122.021 177.807 C 120.859 177.438,118.946 179.501,119.551 180.470 C 119.836 180.926,119.855 181.200,119.603 181.200 C 119.381 181.200,119.200 182.188,119.200 183.400 C 119.200 184.610,119.065 185.623,118.900 185.652 C 118.735 185.680,118.060 185.767,117.400 185.845 C 115.450 186.075,115.337 186.113,115.260 186.567 C 115.036 187.890,114.897 189.669,114.852 191.807 L 114.800 194.214 113.300 194.143 C 111.847 194.075,110.496 194.506,110.700 194.972 C 111.308 196.358,110.684 198.648,109.548 199.208 C 108.236 199.853,106.028 203.195,106.906 203.206 C 107.270 203.211,107.260 203.301,106.869 203.549 C 106.577 203.734,106.374 204.136,106.417 204.443 C 106.708 206.522,106.394 207.625,105.626 207.214 C 104.545 206.635,104.000 206.698,104.000 207.400 C 104.000 207.730,103.736 208.000,103.413 208.000 C 103.056 208.000,102.915 208.235,103.054 208.598 C 103.181 208.926,103.473 209.079,103.704 208.936 C 103.951 208.783,104.005 208.869,103.834 209.145 C 103.675 209.402,103.377 209.509,103.172 209.383 C 102.968 209.256,102.794 209.208,102.786 209.276 C 102.778 209.344,102.675 210.480,102.557 211.800 C 102.269 215.039,102.144 215.331,101.155 215.072 C 99.904 214.745,98.287 215.582,98.852 216.263 C 99.189 216.669,99.162 216.800,98.741 216.800 C 98.322 216.800,98.162 217.557,98.093 219.866 C 97.986 223.442,98.184 223.066,96.274 223.318 C 94.239 223.586,94.102 223.786,94.031 226.602 C 94.007 227.523,93.734 227.922,92.865 228.307 C 92.241 228.583,91.500 229.302,91.218 229.905 C 90.937 230.507,90.534 231.334,90.324 231.742 C 90.029 232.312,90.063 232.414,90.470 232.183 C 90.896 231.941,90.902 231.988,90.500 232.421 C 90.225 232.718,90.000 233.558,90.000 234.290 C 90.000 235.684,88.693 236.641,87.444 236.162 C 86.805 235.916,86.241 236.619,86.130 237.800 C 85.517 244.291,85.446 244.543,84.296 244.280 C 81.957 243.747,81.728 244.258,81.637 250.200 L 81.600 252.600 79.983 252.568 C 78.033 252.530,76.652 253.352,77.600 253.986 C 78.003 254.256,78.036 254.390,77.700 254.394 C 77.403 254.398,77.200 254.932,77.200 255.709 C 77.200 256.795,76.961 257.147,75.800 257.772 C 75.030 258.187,74.400 258.666,74.400 258.837 C 74.400 259.008,74.190 259.655,73.933 260.274 C 73.676 260.893,73.419 262.097,73.363 262.949 C 73.240 264.820,72.933 265.171,71.227 265.386 C 70.505 265.478,69.798 265.682,69.657 265.840 C 69.516 265.998,69.760 266.008,70.200 265.863 C 70.909 265.629,70.895 265.688,70.077 266.382 C 69.314 267.030,69.230 267.308,69.591 267.983 C 69.884 268.531,69.892 268.800,69.614 268.800 C 69.379 268.800,69.200 269.750,69.200 271.000 C 69.200 272.210,69.065 273.223,68.900 273.252 C 68.735 273.280,68.060 273.367,67.400 273.445 C 65.448 273.676,65.336 273.714,65.279 274.167 C 65.249 274.405,65.117 276.127,64.986 277.993 C 64.705 281.987,64.949 281.579,62.766 281.701 C 60.864 281.808,60.935 281.692,60.843 284.868 C 60.806 286.135,60.647 286.370,59.684 286.582 C 58.488 286.844,56.895 289.183,57.379 289.966 C 57.534 290.216,57.341 290.403,56.924 290.406 C 56.310 290.411,56.291 290.471,56.800 290.800 C 57.131 291.014,57.194 291.190,56.940 291.194 C 56.680 291.197,56.480 291.822,56.480 292.627 C 56.480 294.346,56.472 294.355,54.855 294.532 C 54.146 294.610,53.388 294.852,53.170 295.070 C 52.666 295.574,53.142 296.883,53.704 296.536 C 53.951 296.383,54.005 296.469,53.834 296.745 C 53.675 297.002,53.377 297.109,53.172 296.983 C 52.968 296.856,52.782 296.988,52.760 297.276 C 52.342 302.807,52.295 302.959,51.096 302.667 C 50.603 302.547,49.750 302.701,49.200 303.010 C 48.650 303.319,48.380 303.581,48.600 303.592 C 48.820 303.603,48.756 303.767,48.459 303.955 C 48.036 304.223,48.018 304.485,48.373 305.149 C 48.683 305.728,48.693 306.000,48.405 306.000 C 48.115 306.000,47.991 309.623,48.012 317.400 C 48.040 327.471,48.117 328.800,48.671 328.800 C 49.187 328.800,49.209 328.908,48.792 329.410 C 48.007 330.355,48.925 330.883,51.427 330.925 C 52.520 330.944,52.656 331.080,52.675 332.173 C 52.717 334.675,53.245 335.593,54.190 334.808 C 54.694 334.390,54.800 334.415,54.800 334.950 C 54.800 335.547,66.397 335.599,200.200 335.597 C 301.798 335.596,345.600 335.469,345.600 335.174 C 345.600 334.942,345.781 334.865,346.003 335.002 C 346.528 335.326,347.726 334.128,347.402 333.603 C 347.265 333.381,347.366 333.200,347.626 333.200 C 347.941 333.200,348.018 332.790,347.855 331.975 C 347.642 330.908,347.707 330.780,348.359 330.987 C 349.233 331.265,351.197 330.471,351.206 329.836 C 351.209 329.596,351.381 329.666,351.586 329.991 C 351.823 330.365,351.965 325.539,351.973 316.879 L 351.985 303.174 350.996 302.798 C 350.452 302.592,349.780 302.506,349.503 302.607 C 348.576 302.947,348.001 302.167,347.935 300.476 C 347.898 299.554,347.696 298.800,347.485 298.800 C 347.275 298.800,347.349 298.501,347.651 298.135 C 348.059 297.640,348.078 297.429,347.722 297.309 C 347.460 297.221,347.347 296.881,347.473 296.555 C 347.598 296.229,347.363 295.687,346.950 295.351 C 346.538 295.015,346.470 294.873,346.800 295.034 C 347.130 295.196,347.260 295.174,347.088 294.986 C 346.917 294.798,346.478 294.600,346.112 294.546 C 343.771 294.202,343.600 294.045,343.600 292.225 C 343.600 290.144,343.227 288.910,342.804 289.593 C 342.626 289.881,342.336 289.612,342.033 288.879 C 341.765 288.233,341.141 287.519,340.646 287.294 C 339.899 286.953,339.730 286.523,339.650 284.754 C 339.529 282.118,339.119 281.600,337.151 281.600 L 335.600 281.600 335.537 278.900 C 335.502 277.415,335.500 275.885,335.532 275.500 C 335.564 275.115,335.383 274.800,335.129 274.800 C 334.875 274.800,334.786 274.681,334.931 274.536 C 335.358 274.108,333.655 273.129,332.896 273.365 C 331.666 273.748,331.252 273.043,331.031 270.191 C 330.912 268.656,330.735 267.040,330.638 266.600 C 330.541 266.160,330.447 265.665,330.431 265.500 C 330.414 265.335,330.209 265.200,329.976 265.200 C 329.743 265.200,329.649 265.356,329.767 265.547 C 329.885 265.738,329.356 265.611,328.591 265.264 C 327.173 264.621,327.065 264.379,327.190 262.100 C 327.248 261.050,327.110 260.800,326.474 260.800 C 325.959 260.800,325.596 260.439,325.425 259.758 C 325.260 259.100,324.729 258.553,323.982 258.271 C 322.865 257.849,322.800 257.701,322.800 255.561 C 322.800 253.918,322.615 253.147,322.123 252.749 C 321.540 252.276,321.493 252.283,321.782 252.800 C 322.055 253.288,322.017 253.307,321.579 252.900 C 321.282 252.625,320.637 252.400,320.144 252.400 C 318.919 252.400,318.828 252.151,318.760 248.647 C 318.727 246.963,318.540 245.487,318.344 245.365 C 318.148 245.244,318.108 244.949,318.255 244.711 C 318.409 244.461,318.339 244.391,318.089 244.545 C 317.851 244.692,317.533 244.616,317.384 244.374 C 317.235 244.133,316.726 244.032,316.253 244.151 C 314.853 244.502,314.430 243.910,314.351 241.484 C 314.310 240.228,314.123 239.200,313.935 239.200 C 313.747 239.200,313.820 238.835,314.097 238.388 C 314.505 237.728,314.500 237.513,314.066 237.243 C 313.772 237.060,313.502 236.759,313.466 236.574 C 313.430 236.388,313.130 236.214,312.800 236.185 C 310.623 235.998,310.231 235.502,310.384 233.132 C 310.509 231.210,308.478 228.000,307.138 228.000 C 306.469 228.000,306.079 226.334,306.360 224.679 C 306.480 223.968,305.177 223.200,303.852 223.200 C 302.075 223.200,302.027 223.106,301.962 219.551 C 301.933 217.928,301.704 216.340,301.454 216.023 C 301.091 215.562,301.120 215.513,301.600 215.782 C 302.068 216.044,302.098 216.007,301.735 215.614 C 301.479 215.337,300.669 215.060,299.935 214.999 C 299.201 214.938,298.465 214.868,298.300 214.844 C 298.135 214.820,298.000 214.005,298.000 213.033 C 298.000 211.994,297.794 211.184,297.500 211.065 C 297.100 210.904,297.100 210.857,297.500 210.832 C 298.246 210.784,298.105 210.000,297.351 210.000 C 296.829 210.000,296.796 209.886,297.184 209.419 C 297.699 208.799,297.371 207.047,296.805 207.397 C 296.620 207.511,296.386 207.379,296.286 207.102 C 296.140 206.699,295.936 206.699,295.252 207.103 C 294.537 207.526,294.400 207.510,294.400 207.003 C 294.400 206.672,294.229 206.400,294.021 206.400 C 293.812 206.400,293.587 205.455,293.521 204.300 C 293.441 202.921,293.224 202.200,292.887 202.200 C 292.604 202.200,292.151 201.750,291.880 201.200 C 291.608 200.650,290.984 200.022,290.493 199.805 C 289.678 199.445,289.229 197.338,289.567 195.458 C 289.697 194.735,288.780 194.162,287.335 194.065 C 285.464 193.939,285.609 194.150,285.547 191.466 C 285.518 190.220,285.337 189.200,285.144 189.200 C 284.951 189.200,285.020 188.835,285.297 188.388 C 285.713 187.716,285.696 187.510,285.200 187.194 C 284.870 186.984,284.775 186.809,284.989 186.806 C 285.203 186.803,284.976 186.518,284.485 186.174 C 283.994 185.830,283.278 185.646,282.896 185.765 C 281.705 186.136,281.302 185.490,281.048 182.800 C 280.692 179.035,280.588 178.451,280.211 178.108 C 280.024 177.939,280.004 178.070,280.166 178.400 C 280.327 178.730,280.188 178.667,279.856 178.260 C 279.525 177.853,279.060 177.639,278.824 177.785 C 278.054 178.261,277.108 176.821,277.077 175.125 C 277.055 173.926,276.861 173.436,276.357 173.305 C 275.978 173.206,275.563 172.707,275.435 172.196 C 275.306 171.681,274.667 171.031,274.001 170.736 C 272.871 170.236,272.800 170.071,272.800 167.951 C 272.800 166.318,272.614 165.547,272.123 165.149 C 271.540 164.676,271.493 164.683,271.782 165.200 C 272.055 165.688,272.017 165.707,271.579 165.300 C 271.282 165.025,270.637 164.800,270.144 164.800 C 268.917 164.800,268.794 164.482,268.716 161.125 C 268.664 158.890,267.624 155.077,267.594 157.011 C 267.591 157.225,267.416 157.130,267.206 156.800 C 266.910 156.334,266.664 156.299,266.106 156.645 C 264.990 157.336,264.400 156.358,264.400 153.817 C 264.400 152.444,264.229 151.600,263.951 151.600 C 263.634 151.600,263.644 151.429,263.984 151.019 C 265.069 149.711,263.089 147.731,261.781 148.816 C 261.316 149.202,261.200 149.175,261.200 148.682 C 261.200 148.344,261.040 148.007,260.845 147.933 C 260.650 147.860,260.400 146.990,260.289 146.000 C 260.040 143.777,259.259 141.600,258.712 141.600 C 258.444 141.600,258.436 141.774,258.689 142.100 C 258.902 142.375,259.194 142.960,259.339 143.400 C 259.598 144.188,259.593 144.188,259.001 143.424 C 258.670 142.996,258.400 142.497,258.400 142.314 C 258.400 142.130,257.949 141.809,257.397 141.599 C 256.845 141.389,256.417 141.079,256.444 140.909 C 256.472 140.739,256.457 140.420,256.412 140.200 C 256.366 139.980,256.323 139.090,256.316 138.223 C 256.300 136.218,255.666 135.600,253.629 135.600 L 252.000 135.600 251.959 133.100 C 251.937 131.725,251.953 129.995,251.994 129.255 C 252.043 128.374,251.919 128.003,251.635 128.179 C 251.396 128.326,251.200 128.246,251.200 128.000 C 251.200 127.754,251.020 127.664,250.800 127.800 C 250.580 127.936,250.400 127.844,250.400 127.597 C 250.400 127.349,250.085 127.244,249.700 127.364 C 248.436 127.757,247.947 127.023,247.903 124.660 C 247.871 122.973,247.714 122.400,247.281 122.400 C 246.820 122.400,246.800 122.281,247.184 121.819 C 247.699 121.199,247.371 119.447,246.805 119.797 C 246.620 119.911,246.386 119.779,246.286 119.502 C 246.149 119.122,245.921 119.108,245.346 119.445 C 244.226 120.102,243.667 119.273,243.522 116.741 C 243.438 115.269,243.241 114.632,242.891 114.703 C 242.611 114.760,242.210 114.351,241.998 113.796 C 241.787 113.240,241.160 112.613,240.604 112.402 C 240.049 112.190,239.617 111.879,239.644 111.709 C 239.672 111.539,239.657 111.220,239.612 111.000 C 239.566 110.780,239.523 109.890,239.516 109.023 C 239.501 107.131,239.051 106.632,237.200 106.456 C 235.455 106.291,235.608 106.532,235.547 103.866 C 235.518 102.620,235.316 101.600,235.098 101.600 C 234.880 101.600,234.931 101.325,235.210 100.988 C 236.262 99.721,233.862 97.178,232.705 98.335 C 231.679 99.361,230.836 96.401,230.761 91.501 C 230.749 90.700,229.515 89.909,228.729 90.197 C 227.759 90.554,227.247 89.800,227.147 87.867 C 227.093 86.815,226.902 85.863,226.724 85.753 C 226.546 85.643,226.394 85.248,226.387 84.876 C 226.370 84.005,225.031 82.396,224.336 82.413 C 223.939 82.422,223.965 82.552,224.435 82.913 C 225.093 83.418,226.001 84.905,225.999 85.474 C 225.998 85.653,225.650 85.231,225.226 84.536 C 224.802 83.840,224.059 83.146,223.575 82.992 C 222.886 82.774,222.815 82.636,223.247 82.362 C 223.646 82.110,223.661 82.011,223.300 82.006 C 222.961 82.002,222.800 81.285,222.800 79.776 C 222.800 78.396,222.648 77.647,222.400 77.800 C 222.180 77.936,222.000 77.893,222.000 77.705 C 222.000 77.517,221.332 77.319,220.515 77.264 C 218.676 77.140,218.894 77.542,218.643 73.795 C 218.378 69.830,218.338 69.591,217.967 69.820 C 217.803 69.922,217.577 69.779,217.465 69.502 C 217.310 69.122,217.158 69.146,216.837 69.600 C 216.549 70.007,216.410 70.039,216.406 69.700 C 216.403 69.425,215.950 69.200,215.400 69.200 C 214.600 69.200,214.400 69.000,214.400 68.200 C 214.400 67.650,214.175 67.197,213.900 67.194 C 213.561 67.190,213.593 67.051,214.000 66.763 C 214.454 66.442,214.478 66.290,214.098 66.135 C 213.821 66.023,213.678 65.797,213.780 65.633 C 214.122 65.079,188.438 64.495,187.890 65.043 M241.229 112.113 C 241.575 112.381,242.065 112.960,242.317 113.400 C 242.673 114.020,242.778 114.057,242.788 113.562 C 242.801 112.887,241.591 111.591,240.969 111.613 C 240.766 111.620,240.883 111.845,241.229 112.113 M216.427 149.214 C 218.394 150.267,218.397 150.331,217.769 179.693 C 217.080 211.972,216.611 220.371,215.161 226.400 C 214.923 227.390,214.567 233.052,214.370 238.983 C 213.907 252.903,215.535 251.366,201.090 251.522 C 184.732 251.699,186.226 252.821,185.828 240.063 C 185.675 235.148,185.399 230.738,185.214 230.263 C 183.617 226.154,182.481 202.964,182.308 170.933 L 182.200 150.867 183.170 149.833 L 184.139 148.800 199.896 148.800 C 210.001 148.800,215.930 148.949,216.427 149.214 M274.092 170.224 C 274.692 170.550,275.450 171.308,275.776 171.908 C 276.145 172.589,276.374 172.758,276.384 172.358 C 276.406 171.466,274.590 169.597,273.719 169.616 C 273.184 169.628,273.280 169.784,274.092 170.224 M126.252 171.100 C 125.873 171.485,125.293 172.160,124.962 172.600 C 124.441 173.293,124.443 173.232,124.972 172.136 C 125.495 171.054,126.001 170.574,126.770 170.432 C 126.863 170.414,126.630 170.715,126.252 171.100 M290.600 199.264 C 291.040 199.506,291.711 200.086,292.091 200.552 C 292.471 201.018,292.786 201.206,292.791 200.970 C 292.804 200.357,291.058 198.798,290.374 198.812 C 290.004 198.820,290.085 198.981,290.600 199.264 M109.170 200.700 C 108.636 201.305,108.155 201.875,108.100 201.967 C 108.045 202.058,108.000 201.930,108.000 201.682 C 108.000 201.250,109.542 199.600,109.945 199.600 C 110.052 199.600,109.703 200.095,109.170 200.700 M308.146 229.229 C 308.726 229.685,309.196 230.270,309.191 230.529 C 309.186 230.788,308.871 230.618,308.491 230.152 C 308.111 229.686,307.440 229.106,307.000 228.864 C 306.560 228.622,306.401 228.419,306.646 228.412 C 306.891 228.405,307.566 228.773,308.146 229.229 M324.092 257.824 C 324.692 258.150,325.450 258.908,325.776 259.508 C 326.215 260.319,326.372 260.415,326.384 259.882 C 326.393 259.487,325.958 258.722,325.418 258.182 C 324.878 257.642,324.113 257.207,323.718 257.216 C 323.185 257.228,323.281 257.385,324.092 257.824 M204.040 266.449 C 204.788 266.697,206.036 267.394,206.813 267.999 C 207.591 268.603,208.851 269.222,209.613 269.374 C 212.749 269.998,213.505 270.611,214.202 273.099 C 214.340 273.594,214.878 274.105,215.397 274.235 C 217.602 274.788,218.400 277.668,218.400 285.068 C 218.400 291.604,218.006 292.718,214.400 296.382 C 209.434 301.426,209.705 301.310,202.383 301.522 C 193.514 301.777,192.016 301.536,189.632 299.468 C 188.573 298.551,186.892 297.170,185.896 296.400 C 182.541 293.806,182.200 292.687,182.200 284.264 C 182.200 276.293,182.442 275.310,184.657 274.301 C 185.239 274.036,185.932 273.185,186.285 272.304 C 186.949 270.645,188.097 269.871,190.554 269.425 C 191.409 269.270,192.579 268.683,193.154 268.120 C 195.115 266.201,200.697 265.344,204.040 266.449 M340.400 286.671 C 340.730 286.786,341.404 287.357,341.898 287.940 C 342.420 288.556,342.797 288.768,342.798 288.447 C 342.801 287.717,341.249 286.392,340.439 286.432 C 339.899 286.458,339.893 286.496,340.400 286.671 " stroke="none" fill="#fcc404" fill-rule="evenodd"></path><path id="path2" d="M184.807 151.392 C 183.882 152.377,183.877 152.432,184.163 159.092 C 184.816 174.326,185.185 182.181,185.569 189.000 C 186.608 207.442,187.621 234.697,187.607 243.825 C 187.597 250.432,186.733 250.000,199.954 250.000 C 214.047 250.000,212.342 252.155,212.822 233.737 C 213.418 210.872,213.953 197.919,215.216 175.800 C 215.417 172.280,215.703 165.462,215.852 160.648 L 216.124 151.897 215.162 151.157 C 214.268 150.470,213.190 150.417,199.970 150.409 L 185.739 150.400 184.807 151.392 M213.046 151.697 L 214.903 152.194 214.647 155.397 C 214.506 157.159,214.208 160.580,213.985 163.000 C 212.941 174.311,212.211 195.782,211.760 228.400 C 211.598 240.132,211.336 247.998,211.097 248.300 C 210.799 248.678,208.079 248.800,199.975 248.800 C 191.832 248.800,189.169 248.680,188.924 248.300 C 188.746 248.025,188.477 237.360,188.327 224.600 C 187.972 194.495,187.293 176.321,186.046 163.600 C 185.820 161.290,185.572 157.745,185.495 155.721 L 185.356 152.043 186.778 151.663 C 188.994 151.071,210.811 151.099,213.046 151.697 M195.000 270.097 C 191.865 270.874,189.361 272.039,188.586 273.080 C 188.154 273.661,187.144 274.935,186.341 275.911 C 182.845 280.164,182.564 288.746,185.807 292.246 C 186.353 292.835,186.800 293.479,186.800 293.677 C 186.800 294.280,188.604 295.883,190.246 296.737 C 191.101 297.182,192.336 298.053,192.990 298.673 L 194.181 299.800 199.990 299.788 C 205.879 299.775,206.730 299.601,208.384 298.070 C 208.782 297.701,209.821 296.976,210.692 296.459 C 211.563 295.941,212.594 294.980,212.982 294.322 C 213.370 293.665,214.185 292.559,214.792 291.864 C 216.690 289.693,217.374 284.122,216.214 280.297 C 215.462 277.820,215.292 277.552,211.705 273.186 C 209.451 270.442,200.380 268.765,195.000 270.097 M205.200 271.626 C 206.630 271.857,207.971 272.216,208.180 272.423 C 208.389 272.630,208.807 272.800,209.109 272.800 C 209.780 272.800,210.421 273.453,211.164 274.893 C 211.474 275.495,212.014 276.314,212.364 276.715 C 212.714 277.116,213.180 277.724,213.400 278.066 C 213.620 278.408,214.160 279.200,214.600 279.826 C 215.974 281.782,215.746 288.972,214.270 290.242 C 213.670 290.758,212.777 291.948,212.285 292.886 C 211.660 294.081,210.890 294.834,209.718 295.397 C 208.798 295.838,207.616 296.576,207.093 297.036 C 204.091 299.672,195.555 299.484,192.785 296.720 C 192.190 296.127,191.186 295.511,190.555 295.353 C 189.190 295.010,188.608 294.485,188.212 293.237 C 188.050 292.728,187.261 291.585,186.459 290.697 C 184.205 288.204,184.192 278.800,186.442 278.800 C 186.586 278.800,186.927 278.260,187.200 277.600 C 187.473 276.940,187.822 276.400,187.975 276.400 C 188.128 276.400,188.659 275.677,189.156 274.793 C 190.880 271.725,197.601 270.398,205.200 271.626 " stroke="none" fill="#a47c24" fill-rule="evenodd"></path><path id="path3" d="M258.413 141.100 C 258.406 141.375,258.565 141.600,258.767 141.600 C 258.968 141.600,259.314 142.095,259.535 142.700 C 259.756 143.305,259.951 143.505,259.968 143.144 C 259.986 142.784,259.646 142.064,259.213 141.544 C 258.781 141.025,258.421 140.825,258.413 141.100 M184.911 150.389 C 184.192 150.827,183.502 151.652,183.351 152.252 C 182.968 153.779,183.983 182.076,184.970 197.400 C 186.013 213.579,186.809 232.480,186.804 240.926 C 186.798 251.202,185.955 250.568,199.819 250.718 L 210.696 250.836 211.887 249.833 L 213.078 248.831 213.322 240.116 C 214.030 214.867,214.421 204.174,214.785 200.200 C 216.485 181.624,217.355 152.565,216.255 151.116 C 215.208 149.738,213.716 149.600,199.874 149.601 C 186.986 149.603,186.126 149.648,184.911 150.389 M215.162 151.157 L 216.124 151.897 215.852 160.648 C 215.703 165.462,215.417 172.280,215.216 175.800 C 213.953 197.919,213.418 210.872,212.822 233.737 C 212.342 252.155,214.047 250.000,199.954 250.000 C 186.733 250.000,187.597 250.432,187.607 243.825 C 187.621 234.697,186.608 207.442,185.569 189.000 C 185.185 182.181,184.816 174.326,184.163 159.092 C 183.877 152.432,183.882 152.377,184.807 151.392 L 185.739 150.400 199.970 150.409 C 213.190 150.417,214.268 150.470,215.162 151.157 M275.326 170.571 C 275.801 171.105,276.267 171.467,276.360 171.374 C 276.575 171.158,275.177 169.600,274.768 169.600 C 274.599 169.600,274.850 170.037,275.326 170.571 M291.802 199.602 C 292.202 200.044,292.611 200.322,292.712 200.221 C 292.928 200.005,291.788 198.800,291.367 198.800 C 291.207 198.800,291.403 199.161,291.802 199.602 M308.644 228.780 C 308.888 229.121,309.288 229.760,309.532 230.200 C 309.776 230.640,309.981 230.785,309.988 230.522 C 309.995 230.260,309.595 229.621,309.100 229.103 C 308.605 228.585,308.400 228.440,308.644 228.780 M325.314 258.120 C 325.801 258.626,326.274 258.987,326.364 258.923 C 326.598 258.755,325.142 257.200,324.752 257.200 C 324.574 257.200,324.827 257.614,325.314 258.120 M197.033 268.746 C 196.916 268.936,195.780 269.298,194.510 269.550 C 191.993 270.050,188.000 271.749,188.000 272.320 C 188.000 272.517,187.685 273.045,187.300 273.493 C 183.422 278.012,183.269 278.431,183.230 284.681 C 183.200 289.601,183.521 291.171,184.811 292.400 C 185.158 292.730,185.844 293.662,186.336 294.472 C 186.883 295.372,187.923 296.279,189.014 296.807 C 189.994 297.281,191.119 298.059,191.513 298.535 C 192.912 300.224,193.722 300.400,200.095 300.399 C 206.588 300.397,207.315 300.214,209.705 297.988 C 210.170 297.554,210.785 297.200,211.072 297.200 C 211.714 297.200,214.000 294.860,214.000 294.202 C 214.000 293.938,214.614 293.091,215.364 292.318 C 218.388 289.205,217.854 278.749,214.498 275.342 C 213.878 274.714,212.964 273.619,212.465 272.909 C 211.317 271.275,208.420 269.927,204.902 269.390 C 203.968 269.247,203.103 268.966,202.978 268.765 C 202.691 268.301,197.319 268.283,197.033 268.746 M204.694 270.054 C 208.082 270.862,210.790 272.071,211.705 273.186 C 215.292 277.552,215.462 277.820,216.214 280.297 C 217.374 284.122,216.690 289.693,214.792 291.864 C 214.185 292.559,213.370 293.665,212.982 294.322 C 212.594 294.980,211.563 295.941,210.692 296.459 C 209.821 296.976,208.782 297.701,208.384 298.070 C 206.730 299.601,205.879 299.775,199.990 299.788 L 194.181 299.800 192.990 298.673 C 192.336 298.053,191.101 297.182,190.246 296.737 C 188.604 295.883,186.800 294.280,186.800 293.677 C 186.800 293.479,186.353 292.835,185.807 292.246 C 182.564 288.746,182.845 280.164,186.341 275.911 C 187.144 274.935,188.154 273.661,188.586 273.080 C 190.538 270.457,199.399 268.792,204.694 270.054 M340.900 286.465 C 341.505 286.686,342.000 287.032,342.000 287.233 C 342.000 287.435,342.225 287.594,342.500 287.587 C 342.775 287.579,342.575 287.219,342.056 286.787 C 341.536 286.354,340.816 286.014,340.456 286.032 C 340.095 286.049,340.295 286.244,340.900 286.465 " stroke="none" fill="#b4841c" fill-rule="evenodd"></path><path id="path4" d="M223.864 83.174 C 224.560 83.598,225.251 84.331,225.401 84.803 C 225.551 85.274,225.761 85.572,225.869 85.464 C 226.453 84.881,224.313 82.435,223.200 82.414 C 222.870 82.408,223.169 82.750,223.864 83.174 M239.600 111.810 C 239.600 111.925,240.053 112.192,240.607 112.403 C 241.161 112.613,241.796 113.264,242.018 113.848 C 242.241 114.433,242.522 114.811,242.644 114.690 C 242.940 114.393,242.026 112.720,241.235 112.113 C 240.586 111.615,239.600 111.432,239.600 111.810 M256.600 141.200 C 256.736 141.420,257.102 141.600,257.413 141.600 C 257.725 141.600,258.259 142.140,258.600 142.800 C 259.318 144.189,259.617 144.352,259.313 143.190 C 259.197 142.745,258.650 142.025,258.097 141.590 C 257.031 140.752,256.187 140.532,256.600 141.200 M136.469 149.639 C 135.728 150.824,136.057 150.913,136.919 149.761 C 137.314 149.232,137.492 148.800,137.315 148.800 C 137.138 148.800,136.757 149.178,136.469 149.639 M183.170 149.833 L 182.200 150.867 182.308 170.933 C 182.481 202.964,183.617 226.154,185.214 230.263 C 185.399 230.738,185.675 235.148,185.828 240.063 C 186.226 252.821,184.732 251.699,201.090 251.522 C 215.535 251.366,213.907 252.903,214.370 238.983 C 214.567 233.052,214.923 227.390,215.161 226.400 C 217.006 218.725,219.235 154.496,217.777 151.007 C 216.852 148.792,216.915 148.800,199.896 148.800 L 184.139 148.800 183.170 149.833 M214.641 150.016 C 216.625 150.770,216.773 151.322,216.792 158.000 C 216.820 167.722,215.805 189.054,214.785 200.200 C 214.421 204.174,214.030 214.867,213.322 240.116 L 213.078 248.831 211.887 249.833 L 210.696 250.836 199.819 250.718 C 185.955 250.568,186.798 251.202,186.804 240.926 C 186.809 232.480,186.013 213.579,184.970 197.400 C 183.983 182.076,182.968 153.779,183.351 152.252 C 183.985 149.725,184.746 149.603,199.874 149.601 C 208.370 149.601,213.962 149.757,214.641 150.016 M272.800 169.892 C 272.800 170.064,273.340 170.444,274.001 170.736 C 274.689 171.041,275.305 171.681,275.444 172.234 C 275.578 172.765,275.852 173.200,276.054 173.200 C 276.798 173.200,275.147 170.793,273.993 170.196 C 273.337 169.857,272.800 169.720,272.800 169.892 M126.092 170.668 C 125.812 170.780,125.308 171.441,124.972 172.136 C 124.443 173.232,124.441 173.293,124.962 172.600 C 125.293 172.160,125.873 171.485,126.252 171.100 C 126.965 170.374,126.947 170.324,126.092 170.668 M289.600 199.095 C 289.600 199.268,290.004 199.588,290.498 199.805 C 290.992 200.022,291.639 200.709,291.935 201.330 C 292.231 201.952,292.577 202.357,292.704 202.230 C 293.130 201.803,291.839 199.937,290.714 199.356 C 290.101 199.039,289.600 198.921,289.600 199.095 M108.875 200.416 C 108.394 200.864,108.000 201.434,108.000 201.682 C 108.000 201.930,108.045 202.058,108.100 201.967 C 108.155 201.875,108.636 201.305,109.170 200.700 C 110.306 199.411,110.133 199.244,108.875 200.416 M307.000 228.864 C 307.440 229.106,308.111 229.686,308.491 230.152 C 308.871 230.618,309.186 230.788,309.191 230.529 C 309.202 229.978,307.297 228.394,306.646 228.412 C 306.401 228.419,306.560 228.622,307.000 228.864 M86.800 236.800 C 86.360 237.240,86.012 237.825,86.027 238.100 C 86.042 238.375,86.241 238.214,86.469 237.742 C 86.698 237.271,87.271 236.698,87.742 236.469 C 88.214 236.241,88.375 236.042,88.100 236.027 C 87.825 236.012,87.240 236.360,86.800 236.800 M322.800 257.546 C 322.800 257.748,323.269 258.031,323.842 258.175 C 324.500 258.340,325.047 258.871,325.329 259.618 C 325.575 260.268,325.921 260.800,326.098 260.800 C 326.275 260.800,326.143 260.263,325.804 259.607 C 325.207 258.453,322.800 256.802,322.800 257.546 M73.999 260.900 C 73.410 261.704,73.313 261.984,73.745 261.633 C 74.401 261.100,75.393 259.600,75.089 259.600 C 75.013 259.600,74.522 260.185,73.999 260.900 M70.229 265.809 C 69.805 266.129,69.535 266.468,69.629 266.561 C 69.723 266.655,70.225 266.387,70.744 265.966 C 71.838 265.079,71.379 264.939,70.229 265.809 M195.600 266.596 C 194.830 266.871,193.729 267.557,193.154 268.120 C 192.579 268.683,191.409 269.270,190.554 269.425 C 188.097 269.871,186.949 270.645,186.285 272.304 C 185.932 273.185,185.239 274.036,184.657 274.301 C 182.442 275.310,182.200 276.293,182.200 284.264 C 182.200 292.687,182.541 293.806,185.896 296.400 C 186.892 297.170,188.573 298.551,189.632 299.468 C 192.016 301.536,193.514 301.777,202.383 301.522 C 209.705 301.310,209.434 301.426,214.400 296.382 C 218.006 292.718,218.400 291.604,218.400 285.068 C 218.400 277.668,217.602 274.788,215.397 274.235 C 214.878 274.105,214.340 273.594,214.202 273.099 C 213.505 270.611,212.749 269.998,209.613 269.374 C 208.851 269.222,207.591 268.603,206.813 267.999 C 204.247 266.002,199.072 265.355,195.600 266.596 M202.978 268.765 C 203.103 268.966,203.968 269.247,204.902 269.390 C 208.420 269.927,211.317 271.275,212.465 272.909 C 212.964 273.619,213.878 274.714,214.498 275.342 C 217.854 278.749,218.388 289.205,215.364 292.318 C 214.614 293.091,214.000 293.938,214.000 294.202 C 214.000 294.860,211.714 297.200,211.072 297.200 C 210.785 297.200,210.170 297.554,209.705 297.988 C 207.315 300.214,206.588 300.397,200.095 300.399 C 193.722 300.400,192.912 300.224,191.513 298.535 C 191.119 298.059,189.994 297.281,189.014 296.807 C 187.923 296.279,186.883 295.372,186.336 294.472 C 185.844 293.662,185.158 292.730,184.811 292.400 C 183.521 291.171,183.200 289.601,183.230 284.681 C 183.269 278.431,183.422 278.012,187.300 273.493 C 187.685 273.045,188.000 272.517,188.000 272.320 C 188.000 271.749,191.993 270.050,194.510 269.550 C 195.780 269.298,196.916 268.936,197.033 268.746 C 197.319 268.283,202.691 268.301,202.978 268.765 M340.176 287.020 C 340.604 287.339,341.077 287.600,341.228 287.600 C 341.379 287.600,341.739 288.171,342.029 288.869 C 342.318 289.567,342.624 289.929,342.708 289.675 C 342.947 288.959,341.322 286.924,340.307 286.668 C 339.432 286.448,339.427 286.460,340.176 287.020 M351.600 329.105 C 351.600 329.346,351.317 329.826,350.971 330.171 C 350.626 330.517,350.529 330.800,350.757 330.800 C 351.264 330.800,352.156 329.223,351.832 328.899 C 351.705 328.771,351.600 328.864,351.600 329.105 " stroke="none" fill="#d49c14" fill-rule="evenodd"></path></g></svg>